# xmcd
#
# Track frame offsets:
#	150
#	4706
#	13470
#	21997
#	25399
#	31473
#	39800
#	44822
#	55396
#	66538
#	74689
#	80543
#	87003
#	98179
#	104470
#	112936
#	119995
#	127871
#	133281
#	140844
#	151310
#	162633
#	167547
#	175860
#	182089
#	189748
#	195761
#	201290
#	209311
#	217691
#	229760
#	238326
#	260730
#
# Disc length: 3707 seconds
#
# Revision: 0
# Processed by: cddbd v1.5.2PL0 Copyright (c) Steve Scherf et al.
# Submitted via: EZCDAudioConverter 5.3.0.1
#
DISCID=ee0e7921
DTITLE=Common - The Best Of Common Vol. 1 
DYEAR=1900
DGENRE=
TTITLE0=Intro
TTITLE1=Invocation
TTITLE2=A Penny For My Thoughts
TTITLE3=My Way Home
TTITLE4=Raw
TTITLE5=1999
TTITLE6=Testify
TTITLE7=Love Of My Life
TTITLE8=The Bi**h In You
TTITLE9=The Food Feat Kanye
TTITLE10=Breaker 1/9
TTITLE11=Chicity
TTITLE12=Common Vs. Kanye Battle
TTITLE13=Celebrate
TTITLE14=Confusion Feat Just Ro
TTITLE15=You Remind Me
TTITLE16=Resurrection
TTITLE17=Faithful
TTITLE18=I Used To Love Her
TTITLE19=In The City
TTITLE20=Take It Easy
TTITLE21=Watermelon
TTITLE22=Be
TTITLE23=Sun God
TTITLE24=Common Freestyle
TTITLE25=Soul By The Pound
TTITLE26=The Light
TTITLE27=Communism
TTITLE28=Funky For You
TTITLE29=Time Traveling
TTITLE30=Go
TTITLE31=I Am Music Feat Jill Scott
TTITLE32=Lovin' I Lost
EXTD=
EXTT0=
EXTT1=
EXTT2=
EXTT3=
EXTT4=
EXTT5=
EXTT6=
EXTT7=
EXTT8=
EXTT9=
EXTT10=
EXTT11=
EXTT12=
EXTT13=
EXTT14=
EXTT15=
EXTT16=
EXTT17=
EXTT18=
EXTT19=
EXTT20=
EXTT21=
EXTT22=
EXTT23=
EXTT24=
EXTT25=
EXTT26=
EXTT27=
EXTT28=
EXTT29=
EXTT30=
EXTT31=
EXTT32=
PLAYORDER=
